<?xml version="1.0" standalone="no"?>
<!DOCTYPE svg PUBLIC "-//W3C//DTD SVG 20010904//EN"
 "http://www.w3.org/TR/2001/REC-SVG-20010904/DTD/svg10.dtd">
<svg version="1.0" xmlns="http://www.w3.org/2000/svg"
 width="512.000000pt" height="512.000000pt" viewBox="0 0 512.000000 512.000000"
 preserveAspectRatio="xMidYMid meet">

<g transform="translate(0.000000,512.000000) scale(0.100000,-0.100000)"
fill="#000000" stroke="none">
<path d="M2365 5113 c-528 -45 -1032 -249 -1432 -580 -203 -168 -413 -408
-553 -633 -179 -286 -309 -655 -362 -1025 -17 -118 -17 -512 0 -630 42 -295
120 -553 242 -800 137 -280 272 -468 494 -691 218 -217 408 -355 677 -488 329
-164 668 -249 1044 -263 584 -20 1146 157 1620 511 138 103 379 339 477 466
496 644 663 1434 468 2210 -59 235 -182 525 -306 720 -211 333 -537 653 -856
843 -412 246 -872 371 -1338 365 -74 -1 -153 -3 -175 -5z m415 -164 c715 -65
1374 -458 1775 -1059 204 -306 324 -623 387 -1025 17 -109 17 -495 -1 -610
-81 -546 -314 -1018 -686 -1390 -505 -505 -1207 -760 -1915 -694 -548 50
-1074 297 -1469 689 -815 809 -943 2075 -306 3030 488 732 1341 1139 2215
1059z"/>
<path d="M2345 4629 c-363 -38 -739 -186 -1034 -407 -95 -71 -273 -243 -357
-343 -254 -304 -423 -712 -464 -1118 -51 -508 98 -1036 408 -1450 71 -95 243
-273 342 -356 541 -450 1293 -592 1965 -370 531 174 962 547 1216 1052 469
933 162 2071 -719 2659 -385 258 -889 382 -1357 333z m1145 -668 c90 -48 126
-160 81 -249 -32 -64 -90 -97 -166 -97 -70 0 -115 24 -155 81 -44 66 -33 180
23 231 59 55 152 69 217 34z m-1155 -486 c82 -22 150 -61 216 -125 194 -190
174 -507 -43 -676 l-27 -21 44 -79 c25 -43 54 -107 66 -142 l22 -65 61 6 c90
8 161 39 241 104 126 102 257 148 415 147 178 -1 314 -58 441 -184 131 -130
197 -301 186 -480 -17 -262 -177 -475 -425 -568 -131 -49 -333 -41 -458 19
-76 36 -107 137 -63 209 46 74 92 87 209 59 138 -34 241 -11 329 74 66 64 101
145 101 234 0 101 -28 170 -95 238 -125 125 -311 129 -455 10 -111 -92 -210
-136 -374 -164 l-99 -17 -18 -75 c-36 -151 -113 -283 -233 -396 -91 -87 -183
-142 -306 -184 -90 -31 -103 -33 -240 -33 -169 -1 -226 12 -365 79 -104 50
-201 127 -275 217 -63 77 -134 220 -155 311 -15 64 -15 70 4 112 29 65 69 87
150 82 58 -3 66 -6 96 -38 20 -22 40 -61 53 -105 49 -160 172 -285 331 -335
92 -29 223 -29 311 1 174 58 305 207 340 387 29 144 -45 336 -195 508 -28 33
-57 70 -63 82 -18 34 -14 104 8 140 29 48 65 67 142 74 46 4 79 13 96 26 103
76 94 204 -18 261 -43 21 -54 22 -330 22 l-285 0 -36 24 c-99 68 -88 198 21
254 43 21 54 22 330 22 225 0 298 -3 345 -15z m842 -81 c12 -8 40 -38 62 -68
63 -85 92 -101 183 -101 90 0 109 11 177 99 55 73 80 88 141 89 57 1 91 -19
128 -73 29 -43 29 -99 0 -159 -35 -71 -151 -182 -228 -218 -205 -97 -416 -59
-575 101 -129 131 -149 233 -62 314 45 43 122 50 174 16z"/>
</g>
</svg>
